<svg width="159" height="24" viewBox="0 0 159 24" fill="none" xmlns="http://www.w3.org/2000/svg">
<path d="M11.2068 23.9466C3.47347 23.9199 -0.179865 21.5199 0.00680211 15.7066H6.6468C6.7268 17.2266 8.0068 18.1599 11.2068 18.1866C14.0335 18.2132 15.3401 17.4132 15.3401 16.3732C15.3401 15.6532 14.9401 14.9066 12.7535 14.5866L9.87347 14.1332C5.63347 13.4399 0.540135 12.9332 0.540135 7.19989C0.540135 2.77322 4.14014 0.0532227 11.2601 0.0532227C17.6868 0.0532227 22.1668 1.83989 22.0335 8.23989H15.4468C15.1801 6.74656 13.9268 5.81322 11.1001 5.81322C8.6468 5.81322 7.63347 6.55989 7.63347 7.57322C7.63347 8.21322 8.03347 8.98656 9.74014 9.25322L12.1135 9.65322C16.5668 10.3999 22.6735 10.5332 22.6735 16.6666C22.6735 21.5466 18.8868 23.9732 11.2068 23.9466Z" fill="black"/>
<path d="M40.1514 0.799891H47.5381V23.1999H40.1514V15.0932H31.4581V23.1999H24.0714V0.799891H31.4581V8.90656H40.1514V0.799891Z" fill="black"/>
<path d="M61.7085 23.9466C54.0018 23.9466 49.0151 19.1732 49.0151 11.9999C49.0151 4.82656 54.0018 0.0532227 61.7085 0.0532227C69.4151 0.0532227 74.4018 4.82656 74.4018 11.9999C74.4018 19.1732 69.4151 23.9466 61.7085 23.9466ZM61.7085 17.5732C64.6418 17.5732 67.0685 15.5466 67.0685 11.9999C67.0685 8.45322 64.6418 6.42656 61.7085 6.42656C58.7751 6.42656 56.3485 8.45322 56.3485 11.9999C56.3485 15.5466 58.7751 17.5732 61.7085 17.5732Z" fill="black"/>
<path d="M75.8839 23.1999V0.799891H88.6039C94.7106 0.799891 98.3372 3.51989 98.3372 9.54656C98.3372 15.5732 94.7106 18.2932 88.6306 18.2932H83.2706V23.1999H75.8839ZM83.2706 12.1599H87.9639C89.7505 12.1599 90.8972 11.2799 90.8972 9.54656C90.8972 7.81322 89.7506 6.93322 87.9906 6.93322H83.2706V12.1599Z" fill="black"/>
<path d="M102.033 23.6266C100.033 23.6266 98.3526 21.9732 98.3526 19.9999C98.3526 18.0266 100.033 16.3732 102.033 16.3732C104.033 16.3732 105.713 18.0266 105.713 19.9999C105.713 21.9732 104.033 23.6266 102.033 23.6266Z" fill="black"/>
<path d="M119.758 23.9466C112.211 23.9466 107.171 19.1732 107.171 11.9999C107.171 4.82656 112.211 0.0532227 119.758 0.0532227C125.225 0.0532227 130.825 2.45322 131.571 10.0266H124.531C123.918 7.57322 122.185 6.42656 119.758 6.42656C116.825 6.42656 114.505 8.61322 114.505 11.9999C114.505 15.3866 116.825 17.5732 119.758 17.5732C122.185 17.5732 123.918 16.4266 124.531 13.9199H131.571C130.825 21.5466 125.278 23.9466 119.758 23.9466Z" fill="black"/>
<path d="M145.615 23.9466C137.908 23.9466 132.921 19.1732 132.921 11.9999C132.921 4.82656 137.908 0.0532227 145.615 0.0532227C153.321 0.0532227 158.308 4.82656 158.308 11.9999C158.308 19.1732 153.321 23.9466 145.615 23.9466ZM145.615 17.5732C148.548 17.5732 150.975 15.5466 150.975 11.9999C150.975 8.45322 148.548 6.42656 145.615 6.42656C142.681 6.42656 140.255 8.45322 140.255 11.9999C140.255 15.5466 142.681 17.5732 145.615 17.5732Z" fill="black"/>
</svg>
